<?xml version="1.0" standalone="no"?>
<!DOCTYPE svg PUBLIC "-//W3C//DTD SVG 20010904//EN"
 "http://www.w3.org/TR/2001/REC-SVG-20010904/DTD/svg10.dtd">
<svg version="1.0" xmlns="http://www.w3.org/2000/svg"
 width="512.000000pt" height="512.000000pt" viewBox="0 0 512.000000 512.000000"
 preserveAspectRatio="xMidYMid meet">
<metadata>
Created by potrace 1.11, written by Peter Selinger 2001-2013
</metadata>
<g transform="translate(0.000000,512.000000) scale(0.100000,-0.100000)"
fill="#000000" stroke="none">
<path d="M2370 5113 c-106 -8 -335 -47 -455 -79 -452 -118 -829 -336 -1160
-668 -407 -410 -641 -875 -729 -1456 -29 -189 -28 -519 3 -720 66 -427 222
-805 475 -1150 90 -123 113 -149 272 -307 281 -279 582 -463 976 -599 53 -18
107 -36 120 -38 12 -3 60 -15 105 -26 45 -10 96 -22 115 -25 18 -3 44 -7 58
-10 253 -45 584 -41 885 11 80 14 282 69 385 106 349 124 660 320 925 583 153
152 177 178 271 305 218 294 362 614 450 1005 3 11 9 49 15 85 5 36 11 71 14
78 11 30 20 219 18 397 -5 704 -310 1374 -843 1856 -91 82 -237 195 -331 255
-207 133 -526 270 -754 323 -27 7 -66 16 -85 21 -129 33 -298 51 -495 54 -104
1 -210 1 -235 -1z"/>
</g>
</svg>
