<?xml version="1.0" standalone="no"?>
<!DOCTYPE svg PUBLIC "-//W3C//DTD SVG 20010904//EN"
 "http://www.w3.org/TR/2001/REC-SVG-20010904/DTD/svg10.dtd">
<svg version="1.0" xmlns="http://www.w3.org/2000/svg"
 width="1024.000000pt" height="1024.000000pt" viewBox="0 0 1024.000000 1024.000000"
 preserveAspectRatio="xMidYMid meet">
<metadata>
Created by potrace 1.11, written by Peter Selinger 2001-2013
</metadata>
<g transform="translate(0.000000,1024.000000) scale(0.100000,-0.100000)"
fill="#000000" stroke="none">
<path d="M4785 10233 c-465 -28 -995 -143 -1465 -318 -1343 -502 -2419 -1553
-2952 -2885 -203 -507 -317 -1005 -359 -1563 -26 -346 -1 -846 61 -1208 257
-1504 1173 -2817 2500 -3582 144 -83 491 -252 630 -307 493 -196 970 -308
1515 -356 257 -22 746 -15 980 15 299 37 493 75 760 147 1670 449 2995 1708
3535 3359 129 394 208 803 241 1238 26 346 1 846 -61 1208 -374 2191 -2128
3898 -4325 4209 -256 36 -467 50 -745 48 -146 -1 -287 -3 -315 -5z m3667
-1758 c123 -428 165 -642 189 -975 12 -168 7 -334 -17 -530 -75 -616 -343
-1072 -749 -1275 -91 -45 -167 -71 -433 -147 l-323 -92 103 -33 c135 -43 359
-156 478 -240 52 -38 151 -124 220 -193 228 -227 371 -469 459 -775 52 -180
65 -281 65 -490 0 -203 -17 -327 -68 -500 -186 -633 -715 -1118 -1359 -1244
-299 -59 -554 -48 -852 36 -648 183 -1143 738 -1259 1411 -8 50 -20 172 -26
270 -6 97 -14 227 -18 288 l-7 112 -640 -1030 c-384 -618 -657 -1047 -682
-1073 -81 -82 -190 -112 -297 -81 -74 22 -125 54 -163 103 -37 47 -1116 1917
-1141 1976 -27 67 -23 170 11 240 96 195 347 238 503 86 30 -29 162 -249 455
-760 228 -395 419 -717 424 -715 6 1 279 434 607 962 l596 959 -38 3 c-20 2
-211 -6 -423 -17 -452 -25 -606 -26 -742 -6 -564 81 -1063 432 -1329 936 -150
285 -214 562 -203 889 10 286 69 514 199 763 184 352 445 607 803 783 362 178
741 223 1153 139 266 -54 543 -189 764 -372 157 -130 341 -351 417 -500 12
-24 25 -43 29 -43 5 0 26 26 49 58 126 177 313 328 503 404 36 14 345 106 685
204 341 97 928 266 1305 375 377 109 694 197 704 196 15 -2 25 -22 48 -102z"/>
<path d="M6949 7511 c-548 -159 -1017 -298 -1043 -310 -152 -74 -289 -288
-357 -559 -46 -182 -63 -353 -56 -577 6 -165 28 -390 41 -403 9 -8 2012 570
2064 595 180 90 328 356 386 693 39 225 42 418 10 690 -17 143 -21 160 -37
159 -7 -1 -460 -130 -1008 -288z"/>
<path d="M3485 7663 c-344 -31 -641 -197 -841 -468 -161 -218 -232 -449 -221
-720 6 -143 22 -231 63 -345 63 -178 138 -295 273 -431 227 -227 498 -339 820
-339 116 0 1201 56 1205 62 5 6 -52 1070 -63 1188 -14 143 -47 271 -104 393
-58 123 -113 203 -211 305 -204 213 -428 321 -725 351 -102 11 -117 11 -196 4z"/>
<path d="M5975 4849 c-275 -15 -511 -28 -525 -28 -17 -1 -21 -4 -12 -10 10 -6
20 -139 42 -557 38 -719 38 -720 81 -864 28 -94 120 -274 179 -352 118 -156
311 -304 492 -379 347 -143 740 -104 1063 105 118 76 282 243 348 353 201 336
230 712 81 1067 -128 305 -412 556 -735 650 -191 55 -284 56 -1014 15z"/>
</g>
</svg>
